<svg xmlns="http://www.w3.org/2000/svg" xmlns:xlink="http://www.w3.org/1999/xlink" xmlns:fi="http://pattern.flaticon.com/" x="0" y="0" width="700" height="350" viewBox="0 0 704.0229885057471 352.01149425287355"><rect x="0px" y="0px" width="100%" height="100%" opacity="1" fill="#e6f2f8"/><defs><path d="M165,0C74.019,0,0,74.019,0,165s74.019,165,165,165c90.982,0,165-74.019,165-165S255.982,0,165,0z" transform="matrix(0.03030303120613098 0 0 0.03030303120613098 345 82.5)" id="L1_115" fill="#1d2c9b"/><path d="M48.831,15.334c-7.083-11.637-17.753-3.541-17.753-3.541c-0.692,0.523-1.968,0.953-2.835,0.955   l-2.858,0.002c-0.867,0.001-2.143-0.429-2.834-0.952c0,0-10.671-8.098-17.755,3.539C-2.286,26.97,0.568,39.639,0.568,39.639   c0.5,3.102,2.148,5.172,5.258,4.912c3.101-0.259,9.832-8.354,9.832-8.354c0.556-0.667,1.721-1.212,2.586-1.212l17.134-0.003   c0.866,0,2.03,0.545,2.585,1.212c0,0,6.732,8.095,9.838,8.354c3.106,0.26,4.758-1.812,5.255-4.912   C53.055,39.636,55.914,26.969,48.831,15.334z M20.374,24.806H16.7v3.541c0,0-0.778,0.594-1.982,0.579   c-1.202-0.018-1.746-0.648-1.746-0.648v-3.471h-3.47c0,0-0.433-0.444-0.549-1.613c-0.114-1.169,0.479-2.114,0.479-2.114h3.675   v-3.674c0,0,0.756-0.405,1.843-0.374c1.088,0.034,1.885,0.443,1.885,0.443l-0.015,3.604h3.47c0,0,0.606,0.778,0.656,1.718   C20.996,23.738,20.374,24.806,20.374,24.806z M37.226,28.842c-1.609,0-2.906-1.301-2.906-2.908c0-1.61,1.297-2.908,2.906-2.908   c1.602,0,2.909,1.298,2.909,2.908C40.135,27.542,38.828,28.842,37.226,28.842z M37.226,20.841c-1.609,0-2.906-1.3-2.906-2.907   c0-1.61,1.297-2.908,2.906-2.908c1.602,0,2.909,1.298,2.909,2.908C40.135,19.542,38.828,20.841,37.226,20.841z M44.468,25.136   c-1.609,0-2.906-1.3-2.906-2.908c0-1.609,1.297-2.908,2.906-2.908c1.602,0,2.909,1.299,2.909,2.908   C47.377,23.836,46.07,25.136,44.468,25.136z" transform="matrix(0.7459068298339844 0 0 0.7459068298339844 242.5 67.5)" fill="#010002" id="L1_114"/><path d="M165,0C74.019,0,0,74.019,0,165s74.019,165,165,165c90.982,0,165-74.019,165-165S255.982,0,165,0z" transform="matrix(0.03030303120613098 0 0 0.03030303120613098 82.5 257.5)" id="L1_116" fill="#6dd5c8"/><g transform="matrix(0.15604397654533386 0 0 0.15604397654533386 165 165)" id="L1_117"><path d="M84.808,126.005c1.508-21.699,5.67-31.811,11.326-37.834H32.035    c5.658,6.023,9.818,16.135,11.32,37.834H84.808z" fill="#1a93d6"/><path d="M74.867,126.005c0.784-21.699,2.95-31.811,5.894-37.834h-33.35    c2.943,6.023,5.108,16.135,5.89,37.834H74.867z" fill="#ffffff"/><path d="M51.759,105.22c3.939,0.795,8.069,1.219,12.326,1.219s8.387-0.426,12.327-1.219    c1.077-8.275,2.57-13.41,4.349-17.049h-33.35C49.189,91.81,50.683,96.944,51.759,105.22z" fill="#d9e7e8"/><path d="M84.81,127.505c-0.035,0-0.07-0.001-0.105-0.004c-0.827-0.058-1.45-0.773-1.393-1.6    c1.214-17.477,4.218-28.87,9.63-36.23H35.228c5.413,7.359,8.415,18.753,9.624,36.23c0.058,0.826-0.566,1.543-1.393,1.6    c-0.813,0.082-1.543-0.565-1.6-1.393c-1.308-18.881-4.674-30.264-10.918-36.91c-0.409-0.437-0.521-1.074-0.283-1.623    c0.238-0.549,0.778-0.904,1.377-0.904h64.099c0.598,0,1.139,0.355,1.377,0.904c0.237,0.549,0.126,1.187-0.283,1.622    c-6.243,6.648-9.611,18.032-10.924,36.911C86.249,126.899,85.59,127.505,84.81,127.505z" fill="#33363a"/><g><path d="M113.294,60.212c0,20.676-22.032,37.441-49.209,37.441c-27.178,0-49.209-16.766-49.209-37.441     c0-20.68,22.031-45.459,49.209-45.459C91.262,14.753,113.294,39.532,113.294,60.212z" fill="#77d6fc"/><path d="M113.294,60.212c0,20.676-22.032,37.441-49.209,37.441c-27.178,0-49.209-16.766-49.209-37.441     c0-20.68,22.031-34.928,49.209-34.928C91.262,25.284,113.294,39.532,113.294,60.212z" fill="#42b1e8"/><path d="M74.563,70.849c0,1.393-4.691,1.643-10.479,1.643s-10.479-0.25-10.479-1.643     c0-1.395,4.691-5.037,10.479-5.037S74.563,69.454,74.563,70.849z" fill="#77d6fc"/><path d="M113.294,60.212c0,20.676-22.032,37.941-49.209,37.941c-27.178,0-49.209-17.266-49.209-37.941     c0-20.682,6.261,18.34,49.209,18.34C107.032,78.552,113.294,39.53,113.294,60.212z" fill="#1a93d6"/><path d="M37.868,93.392c-0.218,0-0.438-0.047-0.648-0.147c-14.931-7.171-23.844-19.519-23.844-33.032     c0-21.27,22.619-46.959,50.709-46.959s50.709,25.689,50.709,46.959c0,13.515-8.914,25.862-23.844,33.03     c-0.749,0.358-1.643,0.044-2.002-0.703c-0.358-0.747-0.044-1.644,0.703-2.002c13.865-6.656,22.143-17.993,22.143-30.325     c0-19.911-21.281-43.959-47.709-43.959S16.376,40.301,16.376,60.212c0,12.332,8.277,23.669,22.143,30.327     c0.747,0.359,1.062,1.255,0.703,2.002C38.963,93.078,38.427,93.392,37.868,93.392z" fill="#33363a"/></g><path d="M47.923,65.028c0,4.449-3.605,8.051-8.053,8.051c-4.446,0-8.051-3.602-8.051-8.051    c0-4.447,3.605-8.051,8.051-8.051C44.317,56.977,47.923,60.581,47.923,65.028z" fill="#465652"/><circle cx="35" cy="62" r="3" fill="#ffffff"/><path d="M39.87,55.477c-3.24,0-6.104,1.625-7.831,4.099c-0.111,0.149-0.207,0.305-0.3,0.466   c-0.894,1.453-1.42,3.157-1.42,4.985c0,5.267,4.284,9.551,9.551,9.551c5.268,0,9.553-4.284,9.553-9.551S45.138,55.477,39.87,55.477   z M39.87,71.579c-2.721,0-5.058-1.668-6.046-4.034c0.688-0.018,1.525-0.2,2.468-0.396c0.336-0.03,0.66-0.093,0.972-0.19   c0.818-0.148,1.693-0.267,2.606-0.267c2.413,0,4.572,0.813,6.048,0.853C44.929,69.911,42.592,71.579,39.87,71.579z" fill="#33363a"/><path d="M96.35,65.028c0,4.449-3.604,8.051-8.051,8.051c-4.447,0-8.052-3.602-8.052-8.051    c0-4.447,3.604-8.051,8.052-8.051C92.745,56.977,96.35,60.581,96.35,65.028z" fill="#465652"/><circle cx="84" cy="62" r="3" fill="#ffffff"/><path d="M88.299,55.477c-3.238,0-6.101,1.623-7.829,4.095c-0.113,0.151-0.211,0.311-0.306,0.475   c-0.893,1.452-1.417,3.155-1.417,4.981c0,5.267,4.285,9.551,9.552,9.551s9.551-4.284,9.551-9.551S93.565,55.477,88.299,55.477z    M88.299,71.579c-2.721,0-5.058-1.668-6.047-4.034c0.688-0.018,1.525-0.2,2.469-0.396c0.335-0.03,0.658-0.093,0.97-0.189   c0.819-0.148,1.694-0.268,2.609-0.268c2.412,0,4.571,0.813,6.046,0.853C93.357,69.911,91.02,71.579,88.299,71.579z" fill="#33363a"/><g><path d="M82.419,80.395c0,6.256-8.209,11.33-18.334,11.33s-18.332-5.074-18.332-11.33     c0-6.258,8.207-5.861,18.332-5.861S82.419,74.138,82.419,80.395z" fill="#d9e7e8"/><path d="M82.419,80.395c0,6.256-8.209,11.33-18.334,11.33s-18.332-5.074-18.332-11.33     c0-6.258,8.207-1.5,18.332-1.5S82.419,74.138,82.419,80.395z" fill="#ffffff"/><path d="M64.085,93.226c-11.121,0-19.832-5.636-19.832-12.83c0-1.823,0.581-3.327,1.727-4.471     c2.93-2.924,8.866-2.907,16.398-2.894l1.707,0.003l1.707-0.003c7.526-0.016,13.47-0.03,16.4,2.894     c1.146,1.144,1.727,2.647,1.727,4.471C83.919,87.59,75.207,93.226,64.085,93.226z M60.822,76.029     c-5.692,0-10.844,0.144-12.724,2.02c-0.577,0.575-0.846,1.321-0.846,2.347c0,5.328,7.708,9.83,16.832,9.83     c9.125,0,16.834-4.502,16.834-9.83c0-1.025-0.269-1.771-0.846-2.347c-2.049-2.045-7.984-2.029-14.274-2.018l-1.714,0.003     l-1.714-0.003C61.853,76.03,61.334,76.029,60.822,76.029z" fill="#33363a"/></g><path d="M21.232,2.161c-4.703,0-8.517,12.098-8.517,27.021c0,1.697,0.053,3.357,0.146,4.969    c-4.359-4.738-8.594-7.291-10.45-5.957c-2.407,1.731,0.094,9.324,5.583,16.959c4.764,6.627,10.208,11.1,13.141,11.041    c0.032,0.002,0.064,0.008,0.097,0.008c4.704,0,8.517-12.098,8.517-27.019C29.749,14.259,25.937,2.161,21.232,2.161z" fill="#ffffff"/><path d="M2.932,36.284c1.115,2.693,2.839,5.773,5.064,8.869c4.764,6.627,10.208,11.1,13.141,11.041    c0.032,0.002,0.064,0.008,0.097,0.008c4.257,0,7.784-9.91,8.415-22.853c-0.631-12.945-4.158-22.854-8.415-22.854    c-4.246,0-7.766,9.861-8.409,22.76c0.014,0.297,0.021,0.601,0.039,0.896c-0.025-0.027-0.05-0.053-0.074-0.078    c-0.046,1.127-0.072,2.275-0.072,3.441c0,1.699,0.053,3.359,0.146,4.971C8.868,38.142,4.983,35.645,2.932,36.284z" fill="#d9e7e8"/><path d="M21.232,0.661c-6.576,0-10.017,14.348-10.017,28.521c0,0.409,0.003,0.821,0.009,1.235   c-2.968-2.665-7.01-5.363-9.688-3.441c-1.23,0.885-2.354,2.982-0.719,7.952c1.102,3.345,3.218,7.286,5.96,11.101   c4.187,5.823,10.213,11.663,14.301,11.666c0.054,0.004,0.117,0.007,0.154,0.007c6.576,0,10.017-14.347,10.017-28.52   C31.249,15.009,27.809,0.661,21.232,0.661z M21.279,54.701c-0.021-0.002-0.041-0.003-0.053-0.004   c-0.03-0.002-0.061-0.003-0.091-0.003c-0.019,0-0.038,0.001-0.061,0.001c-1.827,0-6.684-3.213-11.862-10.418   c-2.568-3.571-4.538-7.225-5.546-10.287c-1.054-3.202-0.616-4.408-0.38-4.578c0.632-0.449,3.757,0.734,8.185,5.452v2.184   c0,3.032,2.468,5.5,5.5,5.5h0.744c3.032,0,5.5-2.468,5.5-5.5v-3.115c0-0.828-0.672-1.5-1.5-1.5s-1.5,0.672-1.5,1.5v3.115   c0,1.379-1.121,2.5-2.5,2.5h-0.744c-1.379,0-2.5-1.121-2.5-2.5v-3.115c0-0.228-0.055-0.442-0.146-0.635   c-0.068-1.385-0.11-2.767-0.11-4.115c0-15.579,4.155-25.521,7.017-25.521s7.017,9.942,7.017,25.521   C28.249,44.676,24.139,54.594,21.279,54.701z" fill="#33363a"/><path d="M106.937,2.161c4.703,0,8.517,12.098,8.517,27.021c0,1.697-0.052,3.357-0.146,4.969    c4.358-4.738,8.593-7.291,10.449-5.957c2.407,1.731-0.094,9.324-5.583,16.959c-4.763,6.627-10.208,11.1-13.14,11.041    c-0.033,0.002-0.064,0.008-0.098,0.008c-4.703,0-8.516-12.098-8.516-27.019C98.421,14.259,102.233,2.161,106.937,2.161z" fill="#ffffff"/><path d="M125.237,36.284c-1.115,2.693-2.838,5.773-5.063,8.869c-4.763,6.627-10.208,11.1-13.14,11.041    c-0.033,0.002-0.064,0.008-0.098,0.008c-4.256,0-7.783-9.91-8.415-22.853c0.632-12.945,4.159-22.854,8.415-22.854    c4.246,0,7.766,9.861,8.41,22.76c-0.014,0.297-0.022,0.601-0.039,0.896c0.024-0.027,0.049-0.053,0.074-0.078    c0.045,1.127,0.071,2.275,0.071,3.441c0,1.699-0.052,3.359-0.146,4.971C119.302,38.142,123.187,35.645,125.237,36.284z" fill="#d9e7e8"/><path d="M126.632,26.976c-2.675-1.926-6.72,0.776-9.688,3.441c0.006-0.413,0.009-0.825,0.009-1.235   c0-14.174-3.44-28.521-10.017-28.521c-6.575,0-10.016,14.348-10.016,28.521c0,14.173,3.44,28.52,10.016,28.52   c0.021,0,0.088-0.004,0.137-0.007c0.006,0,0.011,0,0.016,0c4.088-0.001,10.117-5.842,14.303-11.666   c2.742-3.814,4.858-7.756,5.96-11.101C128.987,29.959,127.863,27.861,126.632,26.976z M124.502,33.99   c-1.008,3.063-2.978,6.716-5.546,10.288c-5.179,7.205-10.034,10.417-11.861,10.417c-0.011,0-0.021,0-0.03-0.001   c-0.042,0-0.079,0.001-0.118,0.003c-0.011,0-0.033,0.002-0.055,0.004c-2.859-0.104-6.971-10.022-6.971-25.519   c0-15.579,4.155-25.521,7.016-25.521c2.861,0,7.017,9.942,7.017,25.521c0,1.356-0.042,2.736-0.109,4.113   c-0.092,0.194-0.147,0.408-0.147,0.637v3.115c0,1.379-1.121,2.5-2.5,2.5h-0.744c-1.379,0-2.5-1.121-2.5-2.5v-3.115   c0-0.828-0.672-1.5-1.5-1.5s-1.5,0.672-1.5,1.5v3.115c0,3.032,2.468,5.5,5.5,5.5h0.744c3.032,0,5.5-2.468,5.5-5.5v-2.183   c4.428-4.718,7.562-5.901,8.184-5.453C125.118,29.582,125.556,30.788,124.502,33.99z" fill="#33363a"/><circle cx="64" cy="44" r="5" fill="#ffffff"/><path d="M58.778,44.198c0-2.93,2.375-5.307,5.307-5.307c2.932,0,5.307,2.377,5.307,5.307" fill="#d9e7e8"/><path d="M64.085,51.005c-3.753,0-6.807-3.054-6.807-6.807s3.054-6.807,6.807-6.807s6.807,3.054,6.807,6.807    S67.838,51.005,64.085,51.005z M64.085,40.392c-2.099,0-3.807,1.708-3.807,3.807s1.708,3.807,3.807,3.807s3.807-1.708,3.807-3.807    S66.184,40.392,64.085,40.392z" fill="#33363a"/><path d="M69.392,45.698c-0.828,0-1.5-0.672-1.5-1.5c0-2.099-1.708-3.807-3.807-3.807    s-3.807,1.708-3.807,3.807c0,0.828-0.672,1.5-1.5,1.5s-1.5-0.672-1.5-1.5c0-3.753,3.054-6.807,6.807-6.807    s6.807,3.054,6.807,6.807C70.892,45.026,70.22,45.698,69.392,45.698z" fill="#33363a"/></g><g transform="matrix(0.15831051766872406 0 0 0.15831051766872406 340 165)" id="L1_118"><g><circle cx="63" cy="63" r="61" fill="#d988ff"/><ellipse cx="63px" cy="63px" rx="61px" ry="47px" fill="#bf44f2"/><path d="M120.31,39.977c-5.887-14.487-17.115-26.225-31.248-32.775c-2.014,3.475-3.174,7.508-3.174,11.813     c0,13.03,10.564,23.595,23.596,23.595C113.386,42.609,117.065,41.655,120.31,39.977z" fill="#d988ff"/><path d="M6.026,39.977c3.242,1.679,6.92,2.633,10.824,2.633c13.031,0,23.596-10.565,23.596-23.595     c0-4.306-1.16-8.339-3.174-11.813C23.14,13.752,11.911,25.489,6.026,39.977z" fill="#d988ff"/><path d="M1.501,63.166c0,34.061,27.609,61.668,61.666,61.668c34.057,0,61.666-27.607,61.666-61.668H1.501z     " fill="#ffffff"/><path d="M63.167,110.398c34.057,0,61.666-21.148,61.666-47.232H1.501     C1.501,89.25,29.11,110.398,63.167,110.398z" fill="#d8e5ea"/><path d="M121.718,39.505c-0.01-0.031-0.006-0.063-0.019-0.093c-0.064-0.156-0.136-0.307-0.201-0.463    c-0.148-0.356-0.306-0.708-0.46-1.061c-0.27-0.618-0.545-1.234-0.834-1.841c-0.106-0.223-0.217-0.443-0.326-0.665    c-0.367-0.749-0.745-1.491-1.14-2.222c-0.036-0.066-0.073-0.131-0.109-0.197c-5.328-9.796-13.119-17.965-22.657-23.756    c-0.043-0.026-0.085-0.053-0.128-0.079c-0.732-0.442-1.474-0.868-2.226-1.281c-0.196-0.108-0.391-0.219-0.589-0.325    c-0.612-0.328-1.232-0.643-1.857-0.952c-0.327-0.162-0.652-0.326-0.982-0.483c-0.168-0.08-0.33-0.167-0.499-0.246    c-0.032-0.015-0.066-0.012-0.098-0.025C81.548,2.093,72.6,0,63.167,0c-9.433,0-18.381,2.093-26.428,5.816    c-0.032,0.012-0.066,0.01-0.098,0.025c-0.169,0.078-0.331,0.166-0.499,0.246c-0.33,0.157-0.656,0.321-0.983,0.484    c-0.624,0.309-1.244,0.623-1.855,0.951c-0.198,0.107-0.394,0.217-0.591,0.326c-0.751,0.413-1.493,0.839-2.224,1.28    c-0.043,0.026-0.086,0.053-0.13,0.08C20.839,14.989,13.059,23.14,7.733,32.913C7.682,33.007,7.63,33.1,7.579,33.194    c-0.376,0.698-0.736,1.405-1.087,2.119c-0.127,0.258-0.257,0.515-0.381,0.776c-0.267,0.563-0.521,1.134-0.773,1.706    c-0.176,0.399-0.353,0.797-0.521,1.201c-0.058,0.14-0.123,0.275-0.18,0.416c-0.011,0.027-0.007,0.056-0.017,0.083    c-2.969,7.316-4.619,15.302-4.619,23.671c0,34.831,28.336,63.168,63.166,63.168s63.166-28.337,63.166-63.168    C126.333,54.801,124.684,46.818,121.718,39.505z M89.698,9.183c12.756,6.295,22.969,16.975,28.663,30.064    c-2.801,1.237-5.781,1.862-8.878,1.862c-12.184,0-22.096-9.912-22.096-22.095C87.388,15.599,88.183,12.229,89.698,9.183z     M86.976,7.922c-1.697,3.44-2.588,7.241-2.588,11.093c0,13.837,11.258,25.095,25.096,25.095c3.488,0,6.846-0.703,10.005-2.085    c2.311,6.136,3.637,12.747,3.807,19.642H3.039c0.17-6.895,1.496-13.505,3.807-19.642c3.158,1.382,6.515,2.085,10.005,2.085    c13.838,0,25.096-11.257,25.096-25.095c0-3.851-0.891-7.653-2.588-11.093C46.665,4.761,54.713,3,63.167,3    S79.669,4.761,86.976,7.922z M8.87,37.266c0.029-0.06,0.055-0.122,0.084-0.183c5.847-12.103,15.635-21.955,27.682-27.9    c1.515,3.046,2.311,6.416,2.311,9.832c0,12.183-9.912,22.095-22.096,22.095c-3.098,0-6.078-0.626-8.877-1.863    C8.263,38.581,8.557,37.919,8.87,37.266z M63.167,123.334c-32.673,0-59.327-26.184-60.128-58.668h120.256    C122.494,97.15,95.84,123.334,63.167,123.334z" fill="#33363a"/><g><circle cx="63" cy="68" r="16" fill="#a7bbc1"/><circle cx="63" cy="63" r="16" fill="#ffffff"/><path d="M51.313,75.021c-6.547-6.547-6.547-17.16,0-23.709c6.547-6.546,17.162-6.546,23.707,0" fill="#d8e5ea"/><path d="M63.167,81.432c-4.878,0-9.465-1.9-12.915-5.35c-7.121-7.12-7.121-18.708,0-25.83      c3.45-3.449,8.037-5.349,12.915-5.349c4.879,0,9.465,1.899,12.914,5.349h0c7.12,7.123,7.12,18.71,0,25.83      C72.633,79.532,68.046,81.432,63.167,81.432z M63.167,47.903c-4.077,0-7.91,1.587-10.793,4.47      c-5.951,5.953-5.951,15.637,0,21.588c2.883,2.883,6.716,4.471,10.793,4.471c4.078,0,7.91-1.588,10.792-4.471      c5.951-5.951,5.951-15.635,0-21.588C71.078,49.491,67.245,47.903,63.167,47.903z" fill="#33363a"/></g><g><path d="M68.87,68.87c-3.148,3.146-8.256,3.146-11.404,0c-3.148-3.15-3.148-8.255,0-11.403      c3.149-3.15,8.256-3.148,11.404,0C72.019,60.615,72.019,65.72,68.87,68.87z" fill="#ffffff"/><path d="M57.466,57.467c3.149-3.15,8.256-3.148,11.404,0c3.148,3.148,3.148,8.253,0,11.403" fill="#d8e5ea"/><path d="M63.168,72.725c-2.449,0-4.898-0.931-6.762-2.794c-3.729-3.73-3.728-9.797,0-13.525      c1.805-1.807,4.207-2.802,6.762-2.802c0,0,0,0,0.001,0c2.555,0,4.957,0.996,6.763,2.802c3.728,3.728,3.728,9.794,0,13.524      c0,0,0,0-0.001,0C68.066,71.794,65.617,72.725,63.168,72.725z M63.167,56.604c-1.753,0-3.401,0.683-4.64,1.923      c-2.559,2.559-2.559,6.722,0,9.282c2.56,2.558,6.724,2.557,9.283,0c2.558-2.561,2.558-6.724,0-9.282      C66.57,57.288,64.921,56.605,63.167,56.604C63.167,56.604,63.167,56.604,63.167,56.604z" fill="#33363a"/></g></g><path d="M70.417,23.405h-14.5c-0.829,0-1.5,0.671-1.5,1.5v12.174c0,0.829,0.671,1.5,1.5,1.5   s1.5-0.671,1.5-1.5V26.405h4.25v10.674c0,0.829,0.671,1.5,1.5,1.5s1.5-0.671,1.5-1.5V26.405h4.25v10.674c0,0.829,0.671,1.5,1.5,1.5   s1.5-0.671,1.5-1.5V24.905C71.917,24.077,71.246,23.405,70.417,23.405z" fill="#33363a"/></g><g transform="matrix(-0.474931538105011 0 0 0.474931538105011 204.84184860232563 232.5)" id="L1_119"><g><circle cx="63" cy="63" r="61" fill="#d988ff"/><ellipse cx="63px" cy="63px" rx="61px" ry="47px" fill="#bf44f2"/><path d="M120.31,39.977c-5.887-14.487-17.115-26.225-31.248-32.775c-2.014,3.475-3.174,7.508-3.174,11.813     c0,13.03,10.564,23.595,23.596,23.595C113.386,42.609,117.065,41.655,120.31,39.977z" fill="#d988ff"/><path d="M6.026,39.977c3.242,1.679,6.92,2.633,10.824,2.633c13.031,0,23.596-10.565,23.596-23.595     c0-4.306-1.16-8.339-3.174-11.813C23.14,13.752,11.911,25.489,6.026,39.977z" fill="#d988ff"/><path d="M1.501,63.166c0,34.061,27.609,61.668,61.666,61.668c34.057,0,61.666-27.607,61.666-61.668H1.501z     " fill="#ffffff"/><path d="M63.167,110.398c34.057,0,61.666-21.148,61.666-47.232H1.501     C1.501,89.25,29.11,110.398,63.167,110.398z" fill="#d8e5ea"/><path d="M121.718,39.505c-0.01-0.031-0.006-0.063-0.019-0.093c-0.064-0.156-0.136-0.307-0.201-0.463    c-0.148-0.356-0.306-0.708-0.46-1.061c-0.27-0.618-0.545-1.234-0.834-1.841c-0.106-0.223-0.217-0.443-0.326-0.665    c-0.367-0.749-0.745-1.491-1.14-2.222c-0.036-0.066-0.073-0.131-0.109-0.197c-5.328-9.796-13.119-17.965-22.657-23.756    c-0.043-0.026-0.085-0.053-0.128-0.079c-0.732-0.442-1.474-0.868-2.226-1.281c-0.196-0.108-0.391-0.219-0.589-0.325    c-0.612-0.328-1.232-0.643-1.857-0.952c-0.327-0.162-0.652-0.326-0.982-0.483c-0.168-0.08-0.33-0.167-0.499-0.246    c-0.032-0.015-0.066-0.012-0.098-0.025C81.548,2.093,72.6,0,63.167,0c-9.433,0-18.381,2.093-26.428,5.816    c-0.032,0.012-0.066,0.01-0.098,0.025c-0.169,0.078-0.331,0.166-0.499,0.246c-0.33,0.157-0.656,0.321-0.983,0.484    c-0.624,0.309-1.244,0.623-1.855,0.951c-0.198,0.107-0.394,0.217-0.591,0.326c-0.751,0.413-1.493,0.839-2.224,1.28    c-0.043,0.026-0.086,0.053-0.13,0.08C20.839,14.989,13.059,23.14,7.733,32.913C7.682,33.007,7.63,33.1,7.579,33.194    c-0.376,0.698-0.736,1.405-1.087,2.119c-0.127,0.258-0.257,0.515-0.381,0.776c-0.267,0.563-0.521,1.134-0.773,1.706    c-0.176,0.399-0.353,0.797-0.521,1.201c-0.058,0.14-0.123,0.275-0.18,0.416c-0.011,0.027-0.007,0.056-0.017,0.083    c-2.969,7.316-4.619,15.302-4.619,23.671c0,34.831,28.336,63.168,63.166,63.168s63.166-28.337,63.166-63.168    C126.333,54.801,124.684,46.818,121.718,39.505z M89.698,9.183c12.756,6.295,22.969,16.975,28.663,30.064    c-2.801,1.237-5.781,1.862-8.878,1.862c-12.184,0-22.096-9.912-22.096-22.095C87.388,15.599,88.183,12.229,89.698,9.183z     M86.976,7.922c-1.697,3.44-2.588,7.241-2.588,11.093c0,13.837,11.258,25.095,25.096,25.095c3.488,0,6.846-0.703,10.005-2.085    c2.311,6.136,3.637,12.747,3.807,19.642H3.039c0.17-6.895,1.496-13.505,3.807-19.642c3.158,1.382,6.515,2.085,10.005,2.085    c13.838,0,25.096-11.257,25.096-25.095c0-3.851-0.891-7.653-2.588-11.093C46.665,4.761,54.713,3,63.167,3    S79.669,4.761,86.976,7.922z M8.87,37.266c0.029-0.06,0.055-0.122,0.084-0.183c5.847-12.103,15.635-21.955,27.682-27.9    c1.515,3.046,2.311,6.416,2.311,9.832c0,12.183-9.912,22.095-22.096,22.095c-3.098,0-6.078-0.626-8.877-1.863    C8.263,38.581,8.557,37.919,8.87,37.266z M63.167,123.334c-32.673,0-59.327-26.184-60.128-58.668h120.256    C122.494,97.15,95.84,123.334,63.167,123.334z" fill="#33363a"/><g><circle cx="63" cy="68" r="16" fill="#a7bbc1"/><circle cx="63" cy="63" r="16" fill="#ffffff"/><path d="M51.313,75.021c-6.547-6.547-6.547-17.16,0-23.709c6.547-6.546,17.162-6.546,23.707,0" fill="#d8e5ea"/><path d="M63.167,81.432c-4.878,0-9.465-1.9-12.915-5.35c-7.121-7.12-7.121-18.708,0-25.83      c3.45-3.449,8.037-5.349,12.915-5.349c4.879,0,9.465,1.899,12.914,5.349h0c7.12,7.123,7.12,18.71,0,25.83      C72.633,79.532,68.046,81.432,63.167,81.432z M63.167,47.903c-4.077,0-7.91,1.587-10.793,4.47      c-5.951,5.953-5.951,15.637,0,21.588c2.883,2.883,6.716,4.471,10.793,4.471c4.078,0,7.91-1.588,10.792-4.471      c5.951-5.951,5.951-15.635,0-21.588C71.078,49.491,67.245,47.903,63.167,47.903z" fill="#33363a"/></g><g><path d="M68.87,68.87c-3.148,3.146-8.256,3.146-11.404,0c-3.148-3.15-3.148-8.255,0-11.403      c3.149-3.15,8.256-3.148,11.404,0C72.019,60.615,72.019,65.72,68.87,68.87z" fill="#ffffff"/><path d="M57.466,57.467c3.149-3.15,8.256-3.148,11.404,0c3.148,3.148,3.148,8.253,0,11.403" fill="#d8e5ea"/><path d="M63.168,72.725c-2.449,0-4.898-0.931-6.762-2.794c-3.729-3.73-3.728-9.797,0-13.525      c1.805-1.807,4.207-2.802,6.762-2.802c0,0,0,0,0.001,0c2.555,0,4.957,0.996,6.763,2.802c3.728,3.728,3.728,9.794,0,13.524      c0,0,0,0-0.001,0C68.066,71.794,65.617,72.725,63.168,72.725z M63.167,56.604c-1.753,0-3.401,0.683-4.64,1.923      c-2.559,2.559-2.559,6.722,0,9.282c2.56,2.558,6.724,2.557,9.283,0c2.558-2.561,2.558-6.724,0-9.282      C66.57,57.288,64.921,56.605,63.167,56.604C63.167,56.604,63.167,56.604,63.167,56.604z" fill="#33363a"/></g></g><path d="M70.417,23.405h-14.5c-0.829,0-1.5,0.671-1.5,1.5v12.174c0,0.829,0.671,1.5,1.5,1.5   s1.5-0.671,1.5-1.5V26.405h4.25v10.674c0,0.829,0.671,1.5,1.5,1.5s1.5-0.671,1.5-1.5V26.405h4.25v10.674c0,0.829,0.671,1.5,1.5,1.5   s1.5-0.671,1.5-1.5V24.905C71.917,24.077,71.246,23.405,70.417,23.405z" fill="#33363a"/></g><g transform="matrix(0.7055558562278748 0 0 0.7055558562278748 305 305)" id="L1_120"><path d="M90.334,72.899c0,14.666-11.889,24.336-26.555,24.336s-26.555-9.67-26.555-24.336   S49.114,46.344,63.78,46.344S90.334,58.233,90.334,72.899z" fill="#ff1a1a"/><path d="M90.334,72.899H76.26H51.298H37.225c0,3.455,1.128,7.295,3.112,10.961l-0.484,0.484l23.927,41.715   l23.927-41.715l-0.484-0.484C89.206,80.194,90.334,76.354,90.334,72.899z" fill="#d8e5ea"/><path d="M51.298,72.899H37.225c0,3.455,1.128,7.295,3.112,10.961l-0.484,0.484l18.956,33.049h4.971V72.899   H51.298z" fill="#ffffff"/><path d="M87.711,72.899c-0.159,0.32-0.317,0.641-0.489,0.961l0.484,0.484L63.78,116.059L39.853,74.344   l0.484-0.484c-0.172-0.32-0.33-0.641-0.489-0.961h-2.623c0,3.455,1.128,7.295,3.112,10.961l-0.484,0.484l23.927,41.715   l23.927-41.715l-0.484-0.484c1.984-3.666,3.112-7.506,3.112-10.961H87.711z" fill="#a7bbc1"/><path d="M63.78,52.559c-14.666,0-26.555,9.107-26.555,20.34h53.109   C90.334,61.667,78.446,52.559,63.78,52.559z" fill="#d60909"/><path d="M63.78,52.559v20.34h26.555C90.334,61.667,78.446,52.559,63.78,52.559L63.78,52.559z" fill="#b50b0b"/><circle cx="63" cy="75" r="7" fill="#a7bbc1"/><g><path d="M68.085,45.175c0.991-1.057,1.604-2.474,1.604-4.034c0-2.74-1.876-5.043-4.409-5.71v-3.866    c0-0.829-0.671-1.5-1.5-1.5s-1.5,0.671-1.5,1.5v3.866c-2.533,0.667-4.409,2.97-4.409,5.71c0,1.56,0.612,2.977,1.604,4.034    c-13.433,2.078-23.749,13.718-23.749,27.724c0,4.354,0.985,8.401,2.927,12.032c0.04,0.074,0.085,0.145,0.137,0.211L62.475,126.8    c0.267,0.469,0.765,0.759,1.304,0.759s1.038-0.29,1.304-0.759l23.658-41.622l0.028-0.037c0.051-0.066,0.097-0.137,0.137-0.211    c1.942-3.63,2.927-7.678,2.927-12.032C91.834,58.894,81.518,47.253,68.085,45.175z M63.78,38.231c1.604,0,2.909,1.306,2.909,2.91    c0,1.604-1.305,2.908-2.909,2.908s-2.909-1.305-2.909-2.908C60.87,39.537,62.176,38.231,63.78,38.231z M63.78,47.844    c13.311,0,24.227,10.435,25.006,23.555H38.774C39.553,58.28,50.468,47.844,63.78,47.844z M86.32,83.406l-0.015,0.02    c-0.043,0.056-0.083,0.116-0.118,0.177l-22.407,39.42l-22.407-39.42c-0.035-0.062-0.075-0.121-0.118-0.177l-0.015-0.02    c-1.448-2.743-2.274-5.767-2.468-9.007h50.016C88.593,77.639,87.767,80.663,86.32,83.406z" fill="#33363a"/><path d="M63.78,26.315c0.829,0,1.5-0.671,1.5-1.5v-5.168c0-0.829-0.671-1.5-1.5-1.5s-1.5,0.671-1.5,1.5    v5.168C62.28,25.644,62.951,26.315,63.78,26.315z" fill="#33363a"/><path d="M63.78,14.397c0.829,0,1.5-0.671,1.5-1.5V7.731c0-0.829-0.671-1.5-1.5-1.5s-1.5,0.671-1.5,1.5    v5.166C62.28,13.726,62.951,14.397,63.78,14.397z" fill="#33363a"/><path d="M63.78,2.98c0.39,0,0.78-0.16,1.06-0.44c0.28-0.28,0.44-0.67,0.44-1.06c0-0.39-0.16-0.78-0.44-1.06    c-0.56-0.56-1.56-0.56-2.12,0c-0.28,0.28-0.44,0.67-0.44,1.06c0,0.39,0.16,0.78,0.44,1.06C62.999,2.82,63.389,2.98,63.78,2.98z" fill="#33363a"/></g><g><circle cx="63" cy="72" r="7" fill="#ffffff"/><path d="M58.675,78.005c-2.819-2.82-2.818-7.391,0-10.209c2.819-2.82,7.391-2.82,10.209,0" fill="#d8e5ea"/><path d="M63.78,81.614c-2.233,0-4.465-0.85-6.166-2.549c-3.399-3.4-3.399-8.932,0-12.331     c1.646-1.647,3.836-2.555,6.166-2.555c2.329,0,4.518,0.907,6.165,2.554l0,0c0,0,0,0,0,0.001c1.646,1.646,2.553,3.835,2.553,6.164     c0,2.329-0.907,4.519-2.553,6.166C68.245,80.765,66.013,81.614,63.78,81.614z M63.78,67.18c-1.528,0-2.964,0.595-4.044,1.676     c-2.23,2.229-2.229,5.858,0,8.088c2.23,2.229,5.858,2.229,8.087,0c1.08-1.081,1.675-2.517,1.675-4.045     c0-1.527-0.595-2.963-1.675-4.042c0,0,0,0,0-0.001C66.743,67.776,65.307,67.18,63.78,67.18z" fill="#33363a"/></g></g><g transform="matrix(-0.4703705608844757 0 0 0.4703705608844757 117.50046817224091 57.5)" id="L1_121"><path d="M90.334,72.899c0,14.666-11.889,24.336-26.555,24.336s-26.555-9.67-26.555-24.336   S49.114,46.344,63.78,46.344S90.334,58.233,90.334,72.899z" fill="#ff1a1a"/><path d="M90.334,72.899H76.26H51.298H37.225c0,3.455,1.128,7.295,3.112,10.961l-0.484,0.484l23.927,41.715   l23.927-41.715l-0.484-0.484C89.206,80.194,90.334,76.354,90.334,72.899z" fill="#d8e5ea"/><path d="M51.298,72.899H37.225c0,3.455,1.128,7.295,3.112,10.961l-0.484,0.484l18.956,33.049h4.971V72.899   H51.298z" fill="#ffffff"/><path d="M87.711,72.899c-0.159,0.32-0.317,0.641-0.489,0.961l0.484,0.484L63.78,116.059L39.853,74.344   l0.484-0.484c-0.172-0.32-0.33-0.641-0.489-0.961h-2.623c0,3.455,1.128,7.295,3.112,10.961l-0.484,0.484l23.927,41.715   l23.927-41.715l-0.484-0.484c1.984-3.666,3.112-7.506,3.112-10.961H87.711z" fill="#a7bbc1"/><path d="M63.78,52.559c-14.666,0-26.555,9.107-26.555,20.34h53.109   C90.334,61.667,78.446,52.559,63.78,52.559z" fill="#d60909"/><path d="M63.78,52.559v20.34h26.555C90.334,61.667,78.446,52.559,63.78,52.559L63.78,52.559z" fill="#b50b0b"/><circle cx="63" cy="75" r="7" fill="#a7bbc1"/><g><path d="M68.085,45.175c0.991-1.057,1.604-2.474,1.604-4.034c0-2.74-1.876-5.043-4.409-5.71v-3.866    c0-0.829-0.671-1.5-1.5-1.5s-1.5,0.671-1.5,1.5v3.866c-2.533,0.667-4.409,2.97-4.409,5.71c0,1.56,0.612,2.977,1.604,4.034    c-13.433,2.078-23.749,13.718-23.749,27.724c0,4.354,0.985,8.401,2.927,12.032c0.04,0.074,0.085,0.145,0.137,0.211L62.475,126.8    c0.267,0.469,0.765,0.759,1.304,0.759s1.038-0.29,1.304-0.759l23.658-41.622l0.028-0.037c0.051-0.066,0.097-0.137,0.137-0.211    c1.942-3.63,2.927-7.678,2.927-12.032C91.834,58.894,81.518,47.253,68.085,45.175z M63.78,38.231c1.604,0,2.909,1.306,2.909,2.91    c0,1.604-1.305,2.908-2.909,2.908s-2.909-1.305-2.909-2.908C60.87,39.537,62.176,38.231,63.78,38.231z M63.78,47.844    c13.311,0,24.227,10.435,25.006,23.555H38.774C39.553,58.28,50.468,47.844,63.78,47.844z M86.32,83.406l-0.015,0.02    c-0.043,0.056-0.083,0.116-0.118,0.177l-22.407,39.42l-22.407-39.42c-0.035-0.062-0.075-0.121-0.118-0.177l-0.015-0.02    c-1.448-2.743-2.274-5.767-2.468-9.007h50.016C88.593,77.639,87.767,80.663,86.32,83.406z" fill="#33363a"/><path d="M63.78,26.315c0.829,0,1.5-0.671,1.5-1.5v-5.168c0-0.829-0.671-1.5-1.5-1.5s-1.5,0.671-1.5,1.5    v5.168C62.28,25.644,62.951,26.315,63.78,26.315z" fill="#33363a"/><path d="M63.78,14.397c0.829,0,1.5-0.671,1.5-1.5V7.731c0-0.829-0.671-1.5-1.5-1.5s-1.5,0.671-1.5,1.5    v5.166C62.28,13.726,62.951,14.397,63.78,14.397z" fill="#33363a"/><path d="M63.78,2.98c0.39,0,0.78-0.16,1.06-0.44c0.28-0.28,0.44-0.67,0.44-1.06c0-0.39-0.16-0.78-0.44-1.06    c-0.56-0.56-1.56-0.56-2.12,0c-0.28,0.28-0.44,0.67-0.44,1.06c0,0.39,0.16,0.78,0.44,1.06C62.999,2.82,63.389,2.98,63.78,2.98z" fill="#33363a"/></g><g><circle cx="63" cy="72" r="7" fill="#ffffff"/><path d="M58.675,78.005c-2.819-2.82-2.818-7.391,0-10.209c2.819-2.82,7.391-2.82,10.209,0" fill="#d8e5ea"/><path d="M63.78,81.614c-2.233,0-4.465-0.85-6.166-2.549c-3.399-3.4-3.399-8.932,0-12.331     c1.646-1.647,3.836-2.555,6.166-2.555c2.329,0,4.518,0.907,6.165,2.554l0,0c0,0,0,0,0,0.001c1.646,1.646,2.553,3.835,2.553,6.164     c0,2.329-0.907,4.519-2.553,6.166C68.245,80.765,66.013,81.614,63.78,81.614z M63.78,67.18c-1.528,0-2.964,0.595-4.044,1.676     c-2.23,2.229-2.229,5.858,0,8.088c2.23,2.229,5.858,2.229,8.087,0c1.08-1.081,1.675-2.517,1.675-4.045     c0-1.527-0.595-2.963-1.675-4.042c0,0,0,0,0-0.001C66.743,67.776,65.307,67.18,63.78,67.18z" fill="#33363a"/></g></g></defs><g fi:class="KUsePattern"><pattern id="pattern_L1_115" width="350" height="350" patternUnits="userSpaceOnUse"><use xlink:href="#L1_115" x="-350" y="-350"/><use xlink:href="#L1_115" x="0" y="-350"/><use xlink:href="#L1_115" x="350" y="-350"/><use xlink:href="#L1_115" x="-350" y="0"/><use xlink:href="#L1_115" x="0" y="0"/><use xlink:href="#L1_115" x="350" y="0"/><use xlink:href="#L1_115" x="-350" y="350"/><use xlink:href="#L1_115" x="0" y="350"/><use xlink:href="#L1_115" x="350" y="350"/></pattern><rect x="0" y="0" width="100%" height="100%" fill="url(#pattern_L1_115)"/></g><g fi:class="KUsePattern"><pattern id="pattern_L1_114" width="350" height="350" patternUnits="userSpaceOnUse"><use xlink:href="#L1_114" x="-350" y="-350"/><use xlink:href="#L1_114" x="0" y="-350"/><use xlink:href="#L1_114" x="350" y="-350"/><use xlink:href="#L1_114" x="-350" y="0"/><use xlink:href="#L1_114" x="0" y="0"/><use xlink:href="#L1_114" x="350" y="0"/><use xlink:href="#L1_114" x="-350" y="350"/><use xlink:href="#L1_114" x="0" y="350"/><use xlink:href="#L1_114" x="350" y="350"/></pattern><rect x="0" y="0" width="100%" height="100%" fill="url(#pattern_L1_114)"/></g><g fi:class="KUsePattern"><pattern id="pattern_L1_116" width="350" height="350" patternUnits="userSpaceOnUse"><use xlink:href="#L1_116" x="-350" y="-350"/><use xlink:href="#L1_116" x="0" y="-350"/><use xlink:href="#L1_116" x="350" y="-350"/><use xlink:href="#L1_116" x="-350" y="0"/><use xlink:href="#L1_116" x="0" y="0"/><use xlink:href="#L1_116" x="350" y="0"/><use xlink:href="#L1_116" x="-350" y="350"/><use xlink:href="#L1_116" x="0" y="350"/><use xlink:href="#L1_116" x="350" y="350"/></pattern><rect x="0" y="0" width="100%" height="100%" fill="url(#pattern_L1_116)"/></g><g fi:class="KUsePattern"><pattern id="pattern_L1_117" width="350" height="350" patternUnits="userSpaceOnUse"><use xlink:href="#L1_117" x="-350" y="-350"/><use xlink:href="#L1_117" x="0" y="-350"/><use xlink:href="#L1_117" x="350" y="-350"/><use xlink:href="#L1_117" x="-350" y="0"/><use xlink:href="#L1_117" x="0" y="0"/><use xlink:href="#L1_117" x="350" y="0"/><use xlink:href="#L1_117" x="-350" y="350"/><use xlink:href="#L1_117" x="0" y="350"/><use xlink:href="#L1_117" x="350" y="350"/></pattern><rect x="0" y="0" width="100%" height="100%" fill="url(#pattern_L1_117)"/></g><g fi:class="KUsePattern"><pattern id="pattern_L1_118" width="350" height="350" patternUnits="userSpaceOnUse"><use xlink:href="#L1_118" x="-350" y="-350"/><use xlink:href="#L1_118" x="0" y="-350"/><use xlink:href="#L1_118" x="350" y="-350"/><use xlink:href="#L1_118" x="-350" y="0"/><use xlink:href="#L1_118" x="0" y="0"/><use xlink:href="#L1_118" x="350" y="0"/><use xlink:href="#L1_118" x="-350" y="350"/><use xlink:href="#L1_118" x="0" y="350"/><use xlink:href="#L1_118" x="350" y="350"/></pattern><rect x="0" y="0" width="100%" height="100%" fill="url(#pattern_L1_118)"/></g><g fi:class="KUsePattern"><pattern id="pattern_L1_119" width="350" height="350" patternUnits="userSpaceOnUse"><use xlink:href="#L1_119" x="-350" y="-350"/><use xlink:href="#L1_119" x="0" y="-350"/><use xlink:href="#L1_119" x="350" y="-350"/><use xlink:href="#L1_119" x="-350" y="0"/><use xlink:href="#L1_119" x="0" y="0"/><use xlink:href="#L1_119" x="350" y="0"/><use xlink:href="#L1_119" x="-350" y="350"/><use xlink:href="#L1_119" x="0" y="350"/><use xlink:href="#L1_119" x="350" y="350"/></pattern><rect x="0" y="0" width="100%" height="100%" fill="url(#pattern_L1_119)"/></g><g fi:class="KUsePattern"><pattern id="pattern_L1_120" width="350" height="350" patternUnits="userSpaceOnUse"><use xlink:href="#L1_120" x="-350" y="-350"/><use xlink:href="#L1_120" x="0" y="-350"/><use xlink:href="#L1_120" x="350" y="-350"/><use xlink:href="#L1_120" x="-350" y="0"/><use xlink:href="#L1_120" x="0" y="0"/><use xlink:href="#L1_120" x="350" y="0"/><use xlink:href="#L1_120" x="-350" y="350"/><use xlink:href="#L1_120" x="0" y="350"/><use xlink:href="#L1_120" x="350" y="350"/></pattern><rect x="0" y="0" width="100%" height="100%" fill="url(#pattern_L1_120)"/></g><g fi:class="KUsePattern"><pattern id="pattern_L1_121" width="350" height="350" patternUnits="userSpaceOnUse"><use xlink:href="#L1_121" x="-350" y="-350"/><use xlink:href="#L1_121" x="0" y="-350"/><use xlink:href="#L1_121" x="350" y="-350"/><use xlink:href="#L1_121" x="-350" y="0"/><use xlink:href="#L1_121" x="0" y="0"/><use xlink:href="#L1_121" x="350" y="0"/><use xlink:href="#L1_121" x="-350" y="350"/><use xlink:href="#L1_121" x="0" y="350"/><use xlink:href="#L1_121" x="350" y="350"/></pattern><rect x="0" y="0" width="100%" height="100%" fill="url(#pattern_L1_121)"/></g></svg>