<?xml version="1.0" encoding="utf-8"?>
<!-- Generator: Adobe Illustrator 23.1.1, SVG Export Plug-In . SVG Version: 6.00 Build 0)  -->
<svg version="1.1" id="OBJECTS" xmlns="http://www.w3.org/2000/svg" xmlns:xlink="http://www.w3.org/1999/xlink" x="0px" y="0px"
	 viewBox="0 0 320 130.44" style="enable-background:new 0 0 320 130.44;" xml:space="preserve">
<style type="text/css">
	.st0{fill:#5E0281;}
	.st1{fill:#FF017B;}
	.st2{fill:#FF9000;}
	.st3{fill:#1086E1;}
	.st4{fill:#FFFFFF;}
	.st5{font-family:'HelveticaNeue-CondensedBold';}
	.st6{font-size:23.4352px;}
	.st7{letter-spacing:1;}
</style>
<g>
	<g>
		<g>
			<path class="st0" d="M64.24,76c-3.3,0-6.36-1.7-8.1-4.51l-3.3-5.32l-9.88-5.77c-1.33,2-3.59,3.33-6.18,3.33
				c-3.64,0-6.65-2.61-7.29-6.06h-2.48v28.4c0,6.11,6.61,9.93,11.9,6.87l30.04-17.35l-0.78-0.46C66.99,75.68,65.67,76,64.24,76z"/>
			<path class="st1" d="M44.03,57.91c-0.2,0.91-0.57,1.75-1.07,2.5l9.88,5.77l-2.32-3.73C49.06,60.08,46.7,58.47,44.03,57.91z"/>
			<path class="st1" d="M67.12,43.69l1.85,5.92V27.16l-8.77,5C63.32,35.33,65.73,39.24,67.12,43.69z"/>
			<path class="st2" d="M98.98,44.28L68.97,27.16v22.45l4.37,14.02c1.39,4.47-0.67,8.98-4.37,11.11v0.85l30.08-17.57
				C104.32,54.94,104.28,47.3,98.98,44.28z"/>
			<path class="st3" d="M38.99,21.6h7.13c2.51,0,4.57,1.88,4.89,4.31c3.45,1.47,6.56,3.6,9.18,6.26l8.77-5L38.92,9.81
				c-5.29-3.05-11.9,0.76-11.9,6.87v6.94h7.99C35.91,22.4,37.36,21.6,38.99,21.6z"/>
		</g>
		<path class="st1" d="M55.94,37.61c1.29,0,2.34,1.05,2.34,2.34c0,1.29-1.05,2.34-2.34,2.34c-1.29,0-2.34-1.05-2.34-2.34
			C53.6,38.65,54.64,37.61,55.94,37.61z"/>
		<path class="st3" d="M50.61,32.28c1.29,0,2.34,1.05,2.34,2.34c0,1.29-1.05,2.34-2.34,2.34s-2.34-1.05-2.34-2.34
			C48.27,33.33,49.32,32.28,50.61,32.28z"/>
		<path class="st2" d="M50.61,42.93c1.29,0,2.34,1.05,2.34,2.34c0,1.29-1.05,2.34-2.34,2.34s-2.34-1.05-2.34-2.34
			C48.27,43.98,49.32,42.93,50.61,42.93z"/>
		<path class="st0" d="M45.28,37.61c1.29,0,2.34,1.05,2.34,2.34c0,1.29-1.05,2.34-2.34,2.34s-2.34-1.05-2.34-2.34
			C42.95,38.65,43.99,37.61,45.28,37.61z"/>
		<path class="st0" d="M36.79,50.4c3.26,0,5.91,2.65,5.91,5.91c0,3.26-2.65,5.91-5.91,5.91c-3.26,0-5.91-2.65-5.91-5.91
			C30.88,53.04,33.53,50.4,36.79,50.4z"/>
		<path class="st3" d="M32.12,36.72c0.79,0,1.43,0.64,1.43,1.43c0,0.79-0.64,1.43-1.43,1.43c-0.79,0-1.43-0.64-1.43-1.43
			C30.69,37.35,31.33,36.72,32.12,36.72z"/>
	</g>
	<g>
		<text transform="matrix(1 0 0 1 27.0188 119.3486)" class="st4 st5 st6 st7">PXL PRINCE GAMES</text>
	</g>
</g>
</svg>
